<svg width="20" height="21" viewBox="0 0 20 21" fill="none" xmlns="http://www.w3.org/2000/svg">
<g clip-path="url(#clip0_612_3656)">
<path d="M10.0003 19.106C9.81866 19.106 9.64033 19.1043 9.46533 19.1018L8.95199 19.0876L8.70283 19.0768L8.22033 19.0485L7.75949 19.0101C3.77199 18.6235 2.14949 17.001 1.76283 13.0135L1.72449 12.5526L1.69616 12.0701C1.69199 11.9885 1.68783 11.9051 1.68533 11.821L1.67116 11.3076L1.66783 11.0426L1.66699 10.7726C1.66699 10.591 1.66866 10.4126 1.67116 10.2376L1.68533 9.72429L1.69616 9.47512L1.72449 8.99262L1.76283 8.53179C2.14949 4.54429 3.77199 2.92179 7.75949 2.53512L8.22033 2.49679L8.70283 2.46846C8.78449 2.46429 8.86783 2.46012 8.95199 2.45762L9.46533 2.44346L10.0003 2.43929L10.5353 2.44346L11.0487 2.45762L11.2978 2.46846L11.7803 2.49679L12.2412 2.53512C16.2287 2.92179 17.8512 4.54429 18.2378 8.53179L18.2762 8.99262L18.3045 9.47512C18.3087 9.55679 18.3128 9.64012 18.3153 9.72429L18.3295 10.2376L18.3337 10.7726L18.3295 11.3076L18.3153 11.821L18.3045 12.0701L18.2762 12.5526L18.2378 13.0135C17.8512 17.001 16.2287 18.6235 12.2412 19.0101L11.7803 19.0485L11.2978 19.0768C11.2148 19.0808 11.1317 19.0845 11.0487 19.0876L10.5353 19.1018L10.2703 19.1051L10.0003 19.106ZM9.41116 13.0285C9.55465 13.1719 9.74557 13.2581 9.94809 13.2709C10.1506 13.2836 10.3508 13.222 10.5112 13.0976L10.5895 13.0285L13.0895 10.5285C13.2389 10.3785 13.3257 10.1773 13.3322 9.96564C13.3386 9.75401 13.2643 9.54786 13.1243 9.38906C12.9843 9.23025 12.789 9.1307 12.5783 9.11062C12.3675 9.09055 12.157 9.15145 11.9895 9.28096L11.9112 9.35012L10.0003 11.2601L8.08949 9.35012C7.946 9.20664 7.75508 9.12045 7.55256 9.10772C7.35004 9.09498 7.14983 9.15658 6.98949 9.28096L6.91116 9.35012C6.76768 9.49362 6.68149 9.68453 6.66875 9.88706C6.65602 10.0896 6.71762 10.2898 6.84199 10.4501L6.91116 10.5285L9.41116 13.0285Z" fill="currentColor"/>
</g>
<defs>
<clipPath id="clip0_612_3656">
<rect width="20" height="20" fill="white" transform="matrix(1 0 0 -1 0 20.7725)"/>
</clipPath>
</defs>
</svg>
