<svg width="50" height="50" viewBox="0 0 50 50" fill="none" xmlns="http://www.w3.org/2000/svg">
<circle cx="25" cy="25" r="25" fill="white"/>
<g clip-path="url(#clip0_1026_2703)">
<path d="M36.1174 23.3379L36.1172 23.338C33.6507 24.2075 30.2307 25.4014 24.9516 25.4014C18.6194 25.4014 15.1128 24.106 12.8023 23.2402C12.8023 23.2402 12.8022 23.2401 12.8022 23.2401C12.8021 23.2401 12.8019 23.24 12.8018 23.24L12.766 23.2266C11.497 22.7527 10.606 22.4199 9.72738 22.4199C8.88877 22.4199 8.10007 22.7338 7.25278 23.4591C5.77433 24.7254 5.18979 26.5443 5.65862 28.196L5.65878 28.1965C5.8328 28.8123 6.24223 29.6907 7.19751 30.5376C8.15421 31.3858 9.68245 32.2235 12.1262 32.717L12.1302 32.7178C12.1487 32.7217 12.1665 32.7257 12.1764 32.728C12.1816 32.7291 12.1853 32.73 12.1881 32.7306C12.2609 32.7285 12.3244 32.7053 12.3743 32.6673L12.3754 32.6665C12.4428 32.6154 12.4772 32.5388 12.4772 32.4735C12.4772 31.6989 12.8369 31.0328 13.4509 30.4912C14.0541 29.9592 14.914 29.5343 15.9742 29.2007C18.0965 28.5327 21.1615 28.1875 25.0016 28.1875C28.6 28.1875 31.6422 28.5584 33.8024 29.2246C34.8801 29.557 35.7702 29.9724 36.4008 30.4771C37.0351 30.9847 37.4509 31.6223 37.4509 32.3789C37.4509 32.4437 37.4848 32.5196 37.5513 32.5707C37.6497 32.6434 37.7521 32.6618 37.8223 32.6469L37.824 32.6466C42.6438 31.6436 43.9372 29.4048 44.3003 28.2954L36.1174 23.3379ZM36.1174 23.3379L36.2294 23.2984C37.7506 22.7611 38.8505 22.3726 39.9258 22.3726C41.068 22.3726 42.0713 22.8244 43.0955 23.8574L43.0956 23.8574M36.1174 23.3379L43.0956 23.8574M43.0956 23.8574C44.3701 25.1425 44.7913 26.7937 44.3003 28.2953L43.0956 23.8574ZM12.7022 19.175C12.7022 18.0328 12.9248 15.6174 14.5412 13.4966C16.1381 11.4014 19.1681 9.5 24.9766 9.5C29.5959 9.5 32.6528 10.7871 34.5522 12.6052C36.4529 14.4246 37.2509 16.8292 37.2509 19.175V20.2865C36.7405 20.4377 36.2249 20.622 35.7013 20.8091C35.5466 20.8644 35.3911 20.92 35.2349 20.975C32.9074 21.7946 29.7686 22.887 24.9516 22.887C19.089 22.887 15.8681 21.6837 13.7276 20.8838C13.3711 20.7497 13.0344 20.6307 12.7022 20.5184V19.175Z" fill="black" stroke="black"/>
<g filter="url(#filter0_d_1026_2703)">
<path d="M32.5545 38.1407C31.376 38.1208 30.2931 38.1252 29.1043 38.134C28.9756 38.134 28.919 38.0843 28.9314 37.9462C28.9355 37.8876 28.9314 37.828 28.9314 37.7694C28.9314 35.2988 28.9355 32.8249 28.9252 30.3521C28.9252 30.1079 28.9859 30.0394 29.2144 30.0439C30.3642 30.0615 31.1361 30.0527 32.1953 30.0461C32.8149 30.0439 32.8149 30.0461 32.8149 30.719C32.8149 33.0956 32.8108 35.469 32.819 37.8445C32.8201 38.0655 32.7799 38.1451 32.5545 38.1407ZM19.4258 38.1407C18.2658 38.1208 17.1819 38.1252 15.9787 38.134C15.8469 38.134 15.7924 38.0843 15.8026 37.9462C15.8088 37.8876 15.8057 37.828 15.8057 37.7694C15.8057 35.2988 15.8068 32.8249 15.7985 30.3521C15.7985 30.1079 15.8593 30.0394 16.0857 30.0439C17.256 30.0615 18.1 30.0527 19.1798 30.0461C19.6883 30.0439 19.6883 30.0461 19.6883 30.6029C19.6883 33.0183 19.6841 35.4303 19.6924 37.8445C19.6924 38.0655 19.6522 38.1451 19.4258 38.1407V38.1407ZM38.0355 28.0407C34.4752 28.0495 30.9148 28.0495 27.3545 28.0384C27.0992 28.0384 27.0591 28.1246 27.0611 28.371C27.0735 29.519 27.0632 30.6692 27.0714 31.8172C27.0735 32.0327 27.0436 32.1321 26.8079 32.1211C26.3519 32.099 25.8929 32.1034 25.4369 32.1189C25.2382 32.1277 25.194 32.0559 25.196 31.8537C25.2043 30.6836 25.1919 29.5168 25.2063 28.3467C25.2084 28.0981 25.1435 28.0407 24.9192 28.0407C21.3485 28.0495 17.7799 28.0495 14.2103 28.0429C14.0014 28.0407 13.9324 28.0904 13.9345 28.3301C13.9468 29.508 13.9365 30.6869 13.9427 31.867C13.9448 32.0504 13.9087 32.1211 13.7193 32.12C12.547 32.1089 11.3777 32.1111 10.2053 32.1089C9.65669 32.1111 9.11013 32.1178 8.56048 32.1134C8.40609 32.1111 8.33301 32.1476 8.33301 32.3377C8.33918 34.1917 8.33918 36.0435 8.33301 37.8965C8.33301 38.0733 8.38344 38.1362 8.55225 38.1318C9.09881 38.123 9.64742 38.1296 10.195 38.1318C10.1991 36.8932 10.2094 35.6568 10.1991 34.4182C10.1971 34.1674 10.265 34.1121 10.4894 34.1133C11.5496 34.1276 12.6108 34.1276 13.673 34.1133C13.8923 34.1121 13.9468 34.1795 13.9448 34.4083C13.9365 36.3176 13.9386 38.218 13.9386 40.1273C14.5613 40.1339 15.1851 40.1417 15.8078 40.1472C15.8623 40.1428 15.9159 40.1361 15.9725 40.1361H24.9747C25.0489 40.1361 25.1219 40.1472 25.194 40.1538L25.2002 40.1284C25.2002 38.2224 25.2043 36.3198 25.196 34.4138C25.194 34.1917 25.2382 34.1055 25.4637 34.1155C25.9104 34.1376 26.3602 34.1376 26.8069 34.1155C27.0385 34.1044 27.0725 34.1972 27.0725 34.4149C27.0642 36.322 27.0683 38.2235 27.0704 40.1295C27.6931 40.1361 28.3169 40.1428 28.9417 40.1516C29.306 40.145 29.6714 40.1361 30.0368 40.1361C32.1778 40.1394 34.3187 40.1428 36.4597 40.1472C37.0824 40.1417 37.7062 40.1339 38.3289 40.1273C38.3268 36.206 38.3248 32.2868 38.333 28.3655C38.333 28.1125 38.2826 28.0384 38.0355 28.0407V28.0407Z" fill="black"/>
<path d="M29.1043 38.634H29.108C30.2961 38.6252 31.3739 38.6208 32.5461 38.6406L32.5545 38.1407L32.5447 38.6406C32.6814 38.6432 32.965 38.6326 33.16 38.3921C33.2496 38.2817 33.2853 38.1628 33.3014 38.0759C33.3172 37.991 33.3193 37.9075 33.319 37.8422M29.1043 38.634L28.9314 37.9462C28.9341 37.9071 28.9332 37.8675 28.9323 37.8281C28.9318 37.8085 28.9314 37.7889 28.9314 37.7694C28.9314 37.2203 28.9316 36.6711 28.9318 36.1217C28.9325 34.1993 28.9332 32.2754 28.9252 30.3521C28.9252 30.1079 28.9859 30.0394 29.2144 30.0439L29.2221 29.5439C29.2224 29.5439 29.2228 29.5439 29.2231 29.5439C30.2229 29.5593 30.9342 29.5545 31.807 29.5486C31.9317 29.5478 32.0596 29.5469 32.1922 29.5461L32.1935 29.5461L32.2125 29.546C32.349 29.5455 32.4936 29.5449 32.6128 29.5592C32.7384 29.5742 32.9447 29.6157 33.1058 29.7913C33.2586 29.9577 33.2905 30.1598 33.3027 30.2788C33.315 30.3995 33.315 30.5481 33.3149 30.6981L33.3149 30.719C33.3149 31.3137 33.3147 31.9081 33.3144 32.5023C33.3136 34.2832 33.3129 36.0619 33.319 37.8422M29.1043 38.634C28.9992 38.634 28.7784 38.6184 28.6054 38.4393C28.429 38.2568 28.4226 38.0316 28.4328 37.9079L29.1043 38.634ZM33.319 37.8422L32.819 37.8445L33.319 37.8428C33.319 37.8426 33.319 37.8424 33.319 37.8422ZM19.4258 38.1407L19.4172 38.6406C18.2637 38.6208 17.185 38.6252 15.9823 38.634V38.634L16.0857 30.0439L16.0933 29.5439C16.0935 29.5439 16.0938 29.5439 16.0941 29.5439C17.1228 29.5595 17.897 29.5544 18.81 29.5484C18.9295 29.5476 19.0515 29.5468 19.1767 29.5461L19.1776 29.5461C19.1834 29.546 19.1892 29.546 19.195 29.546C19.3051 29.5455 19.4293 29.5449 19.5334 29.5574C19.6443 29.5707 19.8407 29.6092 19.9946 29.7784C20.1394 29.9376 20.1674 30.1282 20.1778 30.2303C20.1883 30.3345 20.1883 30.4615 20.1883 30.5837L20.1883 30.6029C20.1883 31.2073 20.188 31.8114 20.1877 32.4151C20.187 34.2253 20.1862 36.0333 20.1924 37.8428V37.8445C20.1924 37.9097 20.1899 37.9931 20.1738 38.0779C20.1573 38.1648 20.1211 38.2833 20.0313 38.3934C19.836 38.6326 19.553 38.6432 19.416 38.6406L19.4258 38.1407ZM19.4258 38.1407C19.6522 38.1451 19.6924 38.0655 19.6924 37.8445L15.8026 37.9462C15.7924 38.0843 15.8469 38.134 15.9787 38.134C17.1819 38.1252 18.2658 38.1208 19.4258 38.1407ZM26.8079 32.1211C27.0436 32.1321 27.0735 32.0327 27.0714 31.8172C27.0677 31.3006 27.0678 30.7836 27.0678 30.2665C27.0679 29.6345 27.0679 29.0024 27.0611 28.371C27.0591 28.1246 27.0992 28.0384 27.3545 28.0384C30.9148 28.0495 34.4752 28.0495 38.0355 28.0407M38.0355 28.0407L38.0384 28.3649L38.0363 28.3649L38.0355 28.0407Z" stroke="black"/>
</g>
</g>
<defs>
<filter id="filter0_d_1026_2703" x="-74.667" y="-52.9615" width="196" height="178.115" filterUnits="userSpaceOnUse" color-interpolation-filters="sRGB">
<feFlood flood-opacity="0" result="BackgroundImageFix"/>
<feColorMatrix in="SourceAlpha" type="matrix" values="0 0 0 0 0 0 0 0 0 0 0 0 0 0 0 0 0 0 127 0" result="hardAlpha"/>
<feOffset dy="2"/>
<feGaussianBlur stdDeviation="41.5"/>
<feComposite in2="hardAlpha" operator="out"/>
<feColorMatrix type="matrix" values="0 0 0 0 0.87451 0 0 0 0 0.772549 0 0 0 0 0.560784 0 0 0 0.4 0"/>
<feBlend mode="normal" in2="BackgroundImageFix" result="effect1_dropShadow_1026_2703"/>
<feBlend mode="normal" in="SourceGraphic" in2="effect1_dropShadow_1026_2703" result="shape"/>
</filter>
<clipPath id="clip0_1026_2703">
<rect width="40" height="31.1538" fill="white" transform="translate(5 9)"/>
</clipPath>
</defs>
</svg>
