<svg width="20" height="21" viewBox="0 0 20 21" fill="none" xmlns="http://www.w3.org/2000/svg">
<g clip-path="url(#clip0_612_3651)">
<path d="M10.0003 2.43896C9.81866 2.43896 9.64033 2.44063 9.46533 2.44313L8.95199 2.4573L8.70283 2.46813L8.22033 2.49646L7.75949 2.5348C3.77199 2.92146 2.14949 4.54396 1.76283 8.53146L1.72449 8.9923L1.69616 9.4748C1.69199 9.55646 1.68783 9.6398 1.68533 9.72396L1.67116 10.2373L1.66783 10.5023L1.66699 10.7723C1.66699 10.954 1.66866 11.1323 1.67116 11.3073L1.68533 11.8206L1.69616 12.0698L1.72449 12.5523L1.76283 13.0131C2.14949 17.0006 3.77199 18.6231 7.75949 19.0098L8.22033 19.0481L8.70283 19.0765C8.78449 19.0806 8.86783 19.0848 8.95199 19.0873L9.46533 19.1015L10.0003 19.1056L10.5353 19.1015L11.0487 19.0873L11.2978 19.0765L11.7803 19.0481L12.2412 19.0098C16.2287 18.6231 17.8512 17.0006 18.2378 13.0131L18.2762 12.5523L18.3045 12.0698C18.3087 11.9881 18.3128 11.9048 18.3153 11.8206L18.3295 11.3073L18.3337 10.7723L18.3295 10.2373L18.3153 9.72396L18.3045 9.4748L18.2762 8.9923L18.2378 8.53146C17.8512 4.54396 16.2287 2.92146 12.2412 2.5348L11.7803 2.49646L11.2978 2.46813C11.2148 2.46408 11.1317 2.46047 11.0487 2.4573L10.5353 2.44313L10.2703 2.4398L10.0003 2.43896ZM9.41116 8.51646C9.55465 8.37298 9.74557 8.28679 9.94809 8.27406C10.1506 8.26132 10.3508 8.32292 10.5112 8.4473L10.5895 8.51646L13.0895 11.0165C13.2389 11.1664 13.3257 11.3677 13.3322 11.5793C13.3386 11.7909 13.2643 11.9971 13.1243 12.1559C12.9843 12.3147 12.789 12.4142 12.5783 12.4343C12.3675 12.4544 12.157 12.3935 11.9895 12.264L11.9112 12.1948L10.0003 10.2848L8.08949 12.1948C7.946 12.3383 7.75508 12.4245 7.55256 12.4372C7.35004 12.4499 7.14983 12.3883 6.98949 12.264L6.91116 12.1948C6.76768 12.0513 6.68149 11.8604 6.66875 11.6579C6.65602 11.4553 6.71762 11.2551 6.84199 11.0948L6.91116 11.0165L9.41116 8.51646Z" fill="#D0D5DD"/>
</g>
<defs>
<clipPath id="clip0_612_3651">
<rect width="20" height="20" fill="white" transform="translate(0 0.772461)"/>
</clipPath>
</defs>
</svg>
